<svg width="401" height="554" viewBox="0 0 401 554" fill="none" xmlns="http://www.w3.org/2000/svg">
<path opacity="0.21" d="M206.716 475.984C314.016 475.984 401 388.984 401 281.665C401 174.345 314.016 87.3459 206.716 87.3459C99.4163 87.3459 12.4326 174.345 12.4326 281.665C12.4326 388.984 99.4163 475.984 206.716 475.984Z" fill="#FFFF39"/>
<path d="M72.6201 0C72.6201 0 38.7666 47.943 48.653 153.687C48.653 153.687 48.653 155.964 49.1623 159.89C52.3661 188.681 63.5103 216.014 81.3497 238.836C99.1891 261.658 123.021 279.07 150.184 289.126C173.162 297.726 198.118 309.172 205.128 320.798C205.128 320.798 172.323 230.546 125.977 179.067C125.977 179.067 202.312 236.898 219.928 308.813C219.928 308.813 246.022 274.264 229.095 207.983C216.666 173.534 192.771 144.409 161.418 125.491C113.184 96.8148 72.6201 0 72.6201 0Z" fill="#1CAA48"/>
<path d="M239.222 307.135C239.222 307.135 258.276 275.942 303.214 259.012C303.214 259.012 255.1 295.778 245.034 312.948C245.034 312.948 255.25 306.955 285.389 308.753C294.905 309.409 304.439 307.748 313.174 303.912C321.908 300.076 329.583 294.18 335.54 286.729L336.139 285.98C355.702 260.87 367.596 191.053 367.596 180.745C367.596 180.745 339.315 215.654 311.004 221.736C307.4 222.473 303.855 223.475 300.398 224.733C284.884 230.607 271.194 240.471 260.711 253.329C250.227 266.187 243.321 281.584 240.69 297.966C240.211 300.842 239.672 303.899 239.222 307.135Z" fill="#1CAA48"/>
<path d="M206.716 363.198C206.716 363.198 185.026 364.786 154.378 394.9C131.819 417.044 75.4066 389.537 47.0055 373.416C33.1257 365.658 20.9096 355.242 11.0548 342.762C5.45252 335.391 0.53926 327.331 0 320.798C0 320.798 29.9589 340.185 79.0316 323.256C79.0316 323.256 140.088 300.782 170.766 318.491C170.766 318.491 197.998 335.151 204.859 352.081C204.859 352.081 153.06 335.421 110.488 352.081C110.488 352.081 186.614 352.081 206.716 363.198Z" fill="#1CAA48"/>
<path d="M211.989 316.903C211.989 316.903 217.561 347.736 216.753 357.445H206.716C206.716 357.445 215.704 359.213 216.842 366.434C216.842 366.434 222.055 796.273 215.824 805.921L237.125 807.09C237.125 807.09 222.145 354.628 227.718 341.054C233.29 327.48 239.222 317.083 239.222 317.083L223.493 336.65C223.493 336.65 214.236 318.102 211.989 316.903Z" fill="#1D8B4E"/>
</svg>
