<svg width="229" height="280" viewBox="0 0 229 280" fill="none" xmlns="http://www.w3.org/2000/svg">
<path d="M114.006 280C112.317 280 110.627 280 108.96 279.89H108.86C105.548 279.747 102.169 279.45 98.923 279.02C74.1317 275.684 51.1205 264.34 33.4126 246.724C22.7871 236.196 14.3627 223.67 8.62731 209.873C2.89198 196.076 -0.040271 181.282 0.000417715 166.347V8.47584C0.00334365 6.24733 0.89341 4.11109 2.47512 2.53633C4.05684 0.961566 6.20086 0.0770478 8.43627 0.0770497H113.73C130.69 -0.355524 147.571 2.53156 163.418 8.57491C187.411 17.8653 217.732 39.0329 225.925 87.1581C225.925 87.1581 225.925 87.2351 225.925 87.2682C226.267 89.2495 226.565 91.2969 226.819 93.3664C227.25 96.8668 227.581 100.532 227.78 104.231C227.956 107.324 228.034 110.538 228.034 113.796C228.034 116.802 227.967 119.719 227.824 122.47C227.746 124.045 227.669 125.266 227.581 126.389V126.477C227.437 128.326 227.261 130.22 227.04 132.289L226.808 134.26C222.535 168.13 207.441 193.48 181.934 209.595C161.839 222.309 140.042 226.162 125.28 227.208L124.076 227.285L122.464 227.373V271.634C122.452 273.861 121.555 275.992 119.97 277.56C118.384 279.128 116.239 280.006 114.006 280ZM16.839 16.9187V166.347C16.8002 179.068 19.2931 191.671 24.1736 203.425C29.0541 215.18 36.2251 225.852 45.2714 234.825C60.3514 249.832 79.9495 259.498 101.065 262.344C102.545 262.531 104.035 262.696 105.482 262.828V219.051C105.482 216.821 106.371 214.682 107.953 213.104C109.535 211.527 111.68 210.641 113.918 210.641H118.334C119.825 210.641 121.371 210.564 122.906 210.476L123.833 210.41H123.932C147.021 208.847 201.611 198.115 209.903 132.146V132.091C209.969 131.574 210.025 131.045 210.08 130.517C210.29 128.668 210.444 126.984 210.566 125.354C210.56 125.322 210.56 125.288 210.566 125.255C210.654 124.067 210.72 122.867 210.786 121.656C210.908 119.179 210.974 116.559 210.974 113.84C210.974 110.89 210.897 107.973 210.753 105.188C210.566 101.886 210.278 98.584 209.881 95.4578C209.66 93.6085 209.395 91.7923 209.086 90.0531C209.081 89.9982 209.081 89.9429 209.086 89.888C203.565 57.5587 186.064 35.4885 157.124 24.2937C143.489 19.0997 128.974 16.5914 114.381 16.9077L16.839 16.9187Z" fill="white"/>
<path d="M114.006 227.439C111.772 227.439 109.63 226.556 108.049 224.983C106.467 223.411 105.576 221.278 105.57 219.051V68.6213C105.529 67.492 105.717 66.3661 106.122 65.3108C106.527 64.2555 107.142 63.2924 107.928 62.479C108.715 61.6657 109.659 61.0187 110.702 60.5769C111.745 60.135 112.867 59.9073 114 59.9073C115.134 59.9073 116.256 60.135 117.299 60.5769C118.342 61.0187 119.286 61.6657 120.072 62.479C120.859 63.2924 121.474 64.2555 121.879 65.3108C122.284 66.3661 122.472 67.492 122.431 68.6213V219.051C122.425 221.276 121.535 223.407 119.956 224.98C118.377 226.552 116.238 227.436 114.006 227.439Z" fill="white"/>
<path d="M113.995 181.295C112.76 181.302 111.539 181.039 110.417 180.524L49.0808 151.464C48.0781 150.991 47.1787 150.325 46.4341 149.505C45.6895 148.686 45.1141 147.727 44.7409 146.686C44.3677 145.644 44.2039 144.54 44.2589 143.435C44.314 142.33 44.5867 141.247 45.0616 140.248C45.5365 139.248 46.2042 138.352 47.0266 137.609C47.8491 136.867 48.8101 136.293 49.8549 135.921C51.965 135.17 54.288 135.285 56.3131 136.241L117.661 165.301C119.385 166.124 120.777 167.507 121.609 169.222C122.442 170.938 122.665 172.884 122.243 174.742C121.821 176.601 120.778 178.261 119.286 179.452C117.793 180.642 115.939 181.292 114.028 181.295H113.995Z" fill="white"/>
<path d="M113.995 132.542C112.746 132.541 111.512 132.262 110.384 131.728L66.8469 111.1C65.8471 110.626 64.9506 109.961 64.2086 109.142C63.4667 108.323 62.8938 107.367 62.5226 106.327C62.1515 105.288 61.9893 104.186 62.0454 103.084C62.1016 101.982 62.3749 100.902 62.8498 99.9049C63.3246 98.9082 63.9918 98.0145 64.8131 97.2748C65.6345 96.5352 66.5939 95.964 67.6366 95.594C68.6794 95.224 69.785 95.0623 70.8904 95.1183C71.9958 95.1742 73.0794 95.4467 74.0792 95.9201L117.628 116.548C119.351 117.372 120.744 118.754 121.576 120.47C122.409 122.185 122.632 124.131 122.21 125.99C121.788 127.848 120.745 129.509 119.253 130.699C117.76 131.89 115.906 132.54 113.995 132.542Z" fill="white"/>
<path d="M114.006 132.542C112.092 132.541 110.236 131.89 108.743 130.696C107.25 129.503 106.209 127.839 105.792 125.977C105.374 124.115 105.605 122.167 106.445 120.454C107.286 118.74 108.687 117.363 110.417 116.548L153.922 95.9201C155.941 94.9567 158.261 94.8324 160.372 95.5745C162.483 96.3167 164.212 97.8644 165.179 99.8773C166.145 101.89 166.27 104.203 165.525 106.308C164.781 108.413 163.228 110.136 161.209 111.1L117.672 131.728C116.526 132.269 115.274 132.547 114.006 132.542Z" fill="white"/>
<path d="M114.006 181.295C112.092 181.293 110.236 180.642 108.743 179.449C107.25 178.256 106.209 176.591 105.792 174.729C105.374 172.868 105.605 170.92 106.445 169.206C107.286 167.493 108.687 166.115 110.417 165.301L171.754 136.241C172.759 135.721 173.859 135.408 174.988 135.321C176.117 135.233 177.252 135.374 178.326 135.733C179.399 136.093 180.389 136.664 181.236 137.413C182.084 138.162 182.771 139.073 183.258 140.093C183.744 141.112 184.02 142.219 184.068 143.347C184.116 144.475 183.936 145.601 183.539 146.658C183.141 147.715 182.534 148.681 181.754 149.5C180.974 150.318 180.036 150.971 178.997 151.42L117.628 180.524C116.492 181.044 115.255 181.307 114.006 181.295Z" fill="white"/>
</svg>
