<svg width="148" height="38" viewBox="0 0 148 38" fill="none" xmlns="http://www.w3.org/2000/svg">
<path d="M30.5451 13.8664C30.5158 13.3782 30.4729 12.8968 30.4165 12.4353C30.3826 12.1612 30.342 11.8892 30.2946 11.6151C29.1912 5.20208 25.1045 2.37788 21.8776 1.13852C19.7663 0.341576 17.5187 -0.04372 15.259 0.00393808H1.54807C1.3441 0.00422942 1.1422 0.044276 0.95393 0.121783C0.765661 0.19929 0.594726 0.312733 0.450921 0.455613C0.307115 0.598492 0.193266 0.767999 0.115898 0.954418C0.0385297 1.14084 -0.000836919 1.34051 5.3973e-05 1.54198V21.9021C-0.00530081 23.8863 0.38784 25.8519 1.15672 27.685C1.92559 29.5182 3.05493 31.1824 4.47936 32.5815C6.85411 34.9219 9.93984 36.4291 13.2642 36.8724C13.702 36.9304 14.1533 36.969 14.6182 36.9883C14.8438 36.9995 15.0695 37.0039 15.2951 37.0039C15.7057 37.0039 16.0994 36.8428 16.3898 36.5561C16.6801 36.2693 16.8432 35.8803 16.8432 35.4748V30.1853C18.8154 30.0471 21.7016 29.5299 24.3756 27.8559C27.8146 25.7026 29.8478 22.3256 30.4187 17.8252C30.4323 17.736 30.4413 17.6491 30.4526 17.5599C30.4819 17.2902 30.5045 17.0406 30.5225 16.7976V16.7842C30.5225 16.6349 30.5428 16.4744 30.5541 16.2693C30.5722 15.9037 30.5835 15.5203 30.5835 15.1258C30.5835 14.7313 30.5677 14.2699 30.5451 13.8664ZM27.4558 16.1088C27.4558 16.2626 27.44 16.412 27.4265 16.5769C27.4107 16.782 27.3904 16.9937 27.3656 17.2278C27.3656 17.2924 27.352 17.3571 27.3408 17.4329C26.3366 25.3549 19.894 26.8551 16.8364 27.1159V23.7121L23.9378 20.3685C24.2948 20.1858 24.566 19.8733 24.6941 19.4968C24.8222 19.1204 24.7972 18.7095 24.6245 18.3509C24.4518 17.9923 24.1447 17.714 23.7682 17.5747C23.3917 17.4355 22.9752 17.4462 22.6065 17.6045L16.8364 20.3239V17.4262L21.6203 15.1815C21.8041 15.0953 21.9688 14.9742 22.1051 14.8251C22.2415 14.676 22.3468 14.5019 22.415 14.3126C22.4832 14.1233 22.513 13.9226 22.5027 13.7219C22.4923 13.5212 22.4421 13.3246 22.3548 13.1431C22.2676 12.9616 22.145 12.7988 21.994 12.6642C21.8431 12.5295 21.6668 12.4255 21.4751 12.3581C21.2835 12.2907 21.0803 12.2613 20.8772 12.2715C20.6741 12.2817 20.4749 12.3313 20.2912 12.4175L16.8364 14.0469V9.29907C16.8364 8.89352 16.6733 8.50458 16.383 8.21782C16.0927 7.93105 15.6989 7.76994 15.2884 7.76994C14.8778 7.76994 14.4841 7.93105 14.1938 8.21782C13.9035 8.50458 13.7404 8.89352 13.7404 9.29907V14.0469L10.2878 12.4242C10.1031 12.3297 9.90104 12.2728 9.69364 12.257C9.48624 12.2413 9.27774 12.2669 9.08057 12.3323C8.8834 12.3978 8.70159 12.5018 8.54596 12.6382C8.39033 12.7745 8.26407 12.9404 8.17469 13.1259C8.08532 13.3115 8.03466 13.5129 8.02573 13.7182C8.01681 13.9235 8.0498 14.1284 8.12274 14.3209C8.19568 14.5133 8.30708 14.6892 8.45031 14.8383C8.59353 14.9873 8.76565 15.1063 8.95641 15.1882L13.7404 17.4329V20.3306L7.97029 17.6134C7.59923 17.4393 7.17335 17.418 6.78634 17.554C6.39934 17.6901 6.0829 17.9724 5.90665 18.339C5.73039 18.7055 5.70876 19.1262 5.84651 19.5085C5.98426 19.8908 6.2701 20.2033 6.64116 20.3774L13.7404 23.721V33.8565H13.6704C10.7396 33.4703 8.05091 32.0447 6.10542 29.8453C4.15994 27.6459 3.09038 24.8228 3.09608 21.9021V3.07111H15.3854C17.2203 3.03485 19.0451 3.34739 20.7606 3.99171C24.3711 5.37595 26.5487 8.10653 27.2392 12.101V12.1344C27.2776 12.3462 27.3092 12.5802 27.3385 12.8031C27.3904 13.2021 27.4265 13.6145 27.4491 14.0291C27.4694 14.3813 27.4784 14.7491 27.4784 15.1191C27.4784 15.4891 27.4716 15.7968 27.4558 16.1088Z" fill="#1DB54F"/>
<path d="M49.6898 9.36615C49.9838 9.36477 50.2751 9.42167 50.5464 9.53347C50.8177 9.64527 51.0636 9.8097 51.2694 10.017C51.4874 10.2199 51.6602 10.4654 51.7767 10.7379C51.8933 11.0104 51.9511 11.3039 51.9464 11.5997V24.8915C51.9511 25.1873 51.8933 25.4807 51.7767 25.7532C51.6602 26.0257 51.4874 26.2712 51.2694 26.4741C51.0635 26.6811 50.8175 26.8452 50.5462 26.9566C50.2749 27.068 49.9836 27.1245 49.6898 27.1227C49.0995 27.1273 48.5314 26.9005 48.1102 26.4919C47.8942 26.2979 47.7223 26.061 47.6056 25.7967C47.4889 25.5324 47.4302 25.2467 47.4332 24.9583C47.2527 25.468 46.7074 25.9622 45.7972 26.4407C44.8452 26.9288 43.7849 27.1747 42.7125 27.1562C41.7412 27.1511 40.7796 26.9651 39.8782 26.6078C38.9115 26.2256 38.0173 25.6845 37.2335 25.0074C36.3592 24.234 35.678 23.2712 35.2432 22.1943C34.724 20.9477 34.4661 19.6101 34.485 18.2623C34.4659 16.9361 34.724 15.6203 35.2432 14.3971C35.6834 13.332 36.3552 12.3755 37.2109 11.5952C37.9862 10.9049 38.8763 10.3522 39.8421 9.9613C40.7512 9.59088 41.7246 9.39859 42.708 9.39513C43.5759 9.37377 44.4396 9.52165 45.2496 9.83031C46.0597 10.139 46.8001 10.6024 47.4287 11.194V11.5952C47.4287 11.004 47.6665 10.437 48.0897 10.019C48.5128 9.60099 49.0868 9.36615 49.6853 9.36615H49.6898ZM43.3263 23.3267C43.8987 23.3422 44.4681 23.2407 44.999 23.0286C45.5298 22.8165 46.0105 22.4983 46.411 22.094C47.2324 21.2722 47.6431 19.995 47.6431 18.2623C47.6431 16.5296 47.2346 15.2583 46.4178 14.4484C46.0147 14.0467 45.5321 13.7314 45.0002 13.522C44.4684 13.3126 43.8985 13.2137 43.3263 13.2313C42.2025 13.2313 41.2021 13.692 40.325 14.6133C39.448 15.5347 39.0094 16.751 39.0094 18.2623C39.0094 19.7944 39.448 21.0211 40.325 21.9424C41.2021 22.8638 42.2025 23.3252 43.3263 23.3267Z" fill="#1DB54F"/>
<path d="M71.1387 25.1924C71.1422 25.4478 71.0916 25.7011 70.9902 25.936C70.8887 26.1709 70.7387 26.3823 70.5497 26.5566C70.3666 26.739 70.1481 26.8831 69.9073 26.9804C69.6666 27.0777 69.4085 27.1261 69.1484 27.1228C68.8817 27.1373 68.6153 27.0907 68.3698 26.9867C68.1244 26.8827 67.9066 26.724 67.7335 26.5231L61.7964 20.3286L60.3793 21.7931V24.8915C60.3775 25.3297 60.2449 25.7576 59.9983 26.1218C59.7516 26.486 59.4017 26.7703 58.9924 26.9391C58.5831 27.108 58.1324 27.154 57.6968 27.0712C57.2612 26.9885 56.8599 26.7808 56.5431 26.4741C56.3247 26.2716 56.1516 26.0261 56.035 25.7536C55.9184 25.481 55.8609 25.1873 55.8661 24.8915V5.60352C55.8609 5.30766 55.9184 5.01399 56.035 4.74142C56.1516 4.46885 56.3247 4.22341 56.5431 4.02089C56.8599 3.71416 57.2612 3.50646 57.6968 3.42375C58.1324 3.34104 58.5831 3.38699 58.9924 3.55586C59.4017 3.72473 59.7516 4.00903 59.9983 4.37322C60.2449 4.73741 60.3775 5.16534 60.3793 5.60352V15.9641L66.0456 9.9992C66.2344 9.79424 66.4633 9.62928 66.7185 9.51433C66.9738 9.39938 67.25 9.33684 67.5304 9.33049C67.7999 9.32726 68.067 9.38064 68.3141 9.48709C68.5611 9.59353 68.7824 9.75062 68.9633 9.94793C69.152 10.1352 69.3013 10.3574 69.4028 10.6019C69.5042 10.8463 69.5558 11.1081 69.5546 11.3723C69.5548 11.9046 69.3498 12.4171 68.9814 12.8056L64.4682 17.5356L70.561 23.8327C70.7458 24.0087 70.8923 24.22 70.9916 24.4538C71.0909 24.6876 71.141 24.9389 71.1387 25.1924Z" fill="#1DB54F"/>
<path d="M85.6417 3.60406C88.2262 3.60406 90.3113 4.29209 91.8969 5.66816C93.4825 7.04423 94.2753 8.7435 94.2753 10.766C94.2923 11.7377 94.0873 12.7006 93.6755 13.5832C93.2637 14.4658 92.6558 15.2454 91.8969 15.8638C90.3128 17.2191 88.2277 17.8967 85.6417 17.8967H81.5595V24.858C81.5628 25.1586 81.5045 25.4567 81.3882 25.7344C81.2719 26.0121 81.0999 26.2637 80.8826 26.4741C80.6666 26.69 80.4094 26.8615 80.1258 26.9785C79.8423 27.0955 79.538 27.1557 79.2307 27.1557C78.9234 27.1557 78.6192 27.0955 78.3357 26.9785C78.0521 26.8615 77.7949 26.69 77.5789 26.4741C77.3616 26.2637 77.1896 26.0121 77.0733 25.7344C76.9569 25.4567 76.8987 25.1586 76.902 24.858V6.13403C76.8906 5.79848 76.9492 5.46421 77.074 5.15194C77.1989 4.83966 77.3873 4.55603 77.6276 4.31863C77.8679 4.08123 78.1551 3.89511 78.4712 3.77181C78.7873 3.64851 79.1257 3.59066 79.4654 3.60183L85.6417 3.60406ZM85.3709 13.9647C88.2939 13.9647 89.7554 12.8985 89.7554 10.766C89.7554 8.63354 88.2939 7.55616 85.3709 7.53387H81.5595V13.9647H85.3709Z" fill="#1DB54F"/>
<path d="M106.317 9.39959C107.651 9.41455 108.964 9.7342 110.153 10.3336C111.492 11.0042 112.635 12.0017 113.474 13.2313C114.405 14.5347 114.895 16.0948 114.876 17.6894C114.876 18.5112 114.662 19.0997 114.235 19.4548C113.808 19.81 113.131 19.9876 112.204 19.9876H102.099C102.298 20.9714 102.88 21.8389 103.719 22.4039C104.501 22.9727 105.445 23.2846 106.416 23.2955C107.39 23.3301 108.357 23.111 109.219 22.6602C109.616 22.3805 110.085 22.2189 110.573 22.1943C110.836 22.18 111.099 22.2199 111.346 22.3116C111.593 22.4033 111.817 22.5448 112.005 22.7271C112.184 22.9194 112.323 23.145 112.413 23.3907C112.503 23.6363 112.542 23.8972 112.529 24.1581C112.537 24.5237 112.444 24.8846 112.259 25.2016C112.075 25.5187 111.806 25.7799 111.482 25.957C110.042 26.7564 108.333 27.1562 106.355 27.1562C105.352 27.1452 104.359 26.9596 103.421 26.6078C102.385 26.2268 101.413 25.6932 100.538 25.0252C99.5796 24.2779 98.8116 23.32 98.2945 22.2278C97.6994 21.0014 97.3998 19.6556 97.4189 18.2957C97.402 16.9468 97.7017 15.6124 98.2945 14.3971C98.8118 13.3044 99.5733 12.3418 100.522 11.5818C101.388 10.9012 102.354 10.3562 103.388 9.96576C104.321 9.60404 105.314 9.41222 106.317 9.39959ZM106.317 13.2648C105.398 13.2704 104.503 13.5552 103.753 14.0806C102.96 14.6081 102.396 15.4109 102.174 16.3297H110.369C110.15 15.4168 109.597 14.616 108.817 14.0806C108.091 13.5555 107.216 13.27 106.317 13.2648Z" fill="#1DB54F"/>
<path d="M140.411 9.43302C142.683 9.43302 144.516 10.1054 145.91 11.4503C147.305 12.7952 148.001 14.944 148 17.8967V24.8246C148.001 25.1198 147.941 25.4122 147.825 25.6842C147.709 25.9561 147.538 26.2021 147.323 26.4072C147.122 26.6234 146.878 26.796 146.606 26.9138C146.334 27.0316 146.04 27.0922 145.743 27.0915C145.44 27.0952 145.14 27.0363 144.861 26.9184C144.582 26.8006 144.332 26.6264 144.125 26.4072C143.91 26.2021 143.74 25.9561 143.623 25.6842C143.507 25.4122 143.448 25.1198 143.448 24.8246V17.9279C143.448 16.4181 143.122 15.2523 142.469 14.4305C142.178 14.0405 141.796 13.7251 141.356 13.5106C140.916 13.2962 140.43 13.1889 139.939 13.1979C138.703 13.1979 137.736 13.5642 137.04 14.2968C136.343 15.0294 135.817 16.1068 135.46 17.5289V24.8246C135.461 25.1198 135.402 25.4122 135.285 25.6842C135.169 25.9561 134.998 26.2021 134.783 26.4072C134.583 26.6234 134.338 26.796 134.066 26.9138C133.794 27.0316 133.501 27.0922 133.204 27.0915C132.901 27.0952 132.6 27.0363 132.321 26.9184C132.043 26.8006 131.792 26.6264 131.586 26.4072C131.371 26.2021 131.2 25.9561 131.084 25.6842C130.967 25.4122 130.908 25.1198 130.909 24.8246V17.9279C130.909 16.4181 130.577 15.2523 129.914 14.4305C129.612 14.0385 129.221 13.7225 128.772 13.5083C128.324 13.294 127.83 13.1877 127.332 13.1979C125.175 13.1979 123.703 14.6416 122.916 17.5289V24.8246C122.916 25.1198 122.857 25.412 122.74 25.6839C122.624 25.9558 122.453 26.2018 122.239 26.4072C122.038 26.6231 121.794 26.7954 121.522 26.9132C121.25 27.031 120.956 27.0917 120.659 27.0915C120.354 27.0942 120.051 27.0348 119.769 26.9171C119.488 26.7994 119.234 26.6259 119.023 26.4072C118.805 26.2039 118.631 25.9586 118.512 25.6864C118.394 25.4142 118.333 25.121 118.333 24.8246V11.7668C118.333 11.4705 118.394 11.1772 118.512 10.905C118.631 10.6329 118.805 10.3876 119.023 10.1842C119.234 9.96557 119.488 9.79202 119.769 9.67431C120.051 9.55659 120.354 9.49723 120.659 9.49989C120.956 9.49968 121.25 9.5604 121.522 9.6782C121.794 9.796 122.038 9.96831 122.239 10.1842C122.453 10.3897 122.624 10.6357 122.74 10.9075C122.857 11.1794 122.916 11.4717 122.916 11.7668V13.1555C122.916 12.4021 123.394 11.5915 124.349 10.7236C125.309 9.85577 126.573 9.38988 127.874 9.4241C131.267 9.4241 133.524 10.7905 134.643 13.5233C134.794 12.544 135.395 11.6167 136.449 10.7415C137.502 9.8662 138.822 9.43005 140.411 9.43302Z" fill="#1DB54F"/>
</svg>
